<svg width="16" height="24" viewBox="0 0 16 24" fill="none" xmlns="http://www.w3.org/2000/svg">
<g filter="url(#filter0_i_10_6)">
<path d="M3.85011 23.86L15.8501 12.36C15.943 12.2632 15.9949 12.1342 15.9949 12C15.9949 11.8658 15.943 11.7368 15.8501 11.64L3.85011 0.139998C3.75664 0.0483849 3.63098 -0.00293023 3.50011 -0.00293023C3.36923 -0.00293024 3.24357 0.0483849 3.15011 0.139998L0.150106 3.14C0.0543865 3.23539 0.000437706 3.36486 0.000106658 3.5C0.00100693 3.56771 0.0156538 3.63454 0.0431574 3.69642C0.070661 3.7583 0.110448 3.81395 0.160106 3.86L8.77011 12L0.150106 20.14C0.100447 20.186 0.0606601 20.2417 0.0331565 20.3036C0.00565284 20.3655 -0.00899404 20.4323 -0.00989431 20.5C-0.0080158 20.6319 0.0458982 20.7577 0.140105 20.85L3.14011 23.85C3.18592 23.8975 3.2407 23.9355 3.30127 23.9617C3.36184 23.988 3.42701 24.002 3.49302 24.0029C3.55903 24.0038 3.62457 23.9917 3.68586 23.9672C3.74714 23.9426 3.80297 23.9062 3.85011 23.86Z" fill="white"/>
</g>
<defs>
<filter id="filter0_i_10_6" x="-0.0100098" y="-0.00292969" width="16.0049" height="26.0059" filterUnits="userSpaceOnUse" color-interpolation-filters="sRGB">
<feFlood flood-opacity="0" result="BackgroundImageFix"/>
<feBlend mode="normal" in="SourceGraphic" in2="BackgroundImageFix" result="shape"/>
<feColorMatrix in="SourceAlpha" type="matrix" values="0 0 0 0 0 0 0 0 0 0 0 0 0 0 0 0 0 0 127 0" result="hardAlpha"/>
<feOffset dy="2"/>
<feGaussianBlur stdDeviation="1"/>
<feComposite in2="hardAlpha" operator="arithmetic" k2="-1" k3="1"/>
<feColorMatrix type="matrix" values="0 0 0 0 0 0 0 0 0 0 0 0 0 0 0 0 0 0 0.25 0"/>
<feBlend mode="normal" in2="shape" result="effect1_innerShadow_10_6"/>
</filter>
</defs>
</svg>
