<svg width="24" height="19" viewBox="0 0 24 19" fill="none" xmlns="http://www.w3.org/2000/svg">
<path d="M23.7303 9.51009L18.6603 0.710092C18.6118 0.627581 18.5411 0.56038 18.4562 0.51617C18.3714 0.471961 18.2757 0.452527 18.1803 0.460092C18.0857 0.467116 17.995 0.500938 17.9188 0.557604C17.8427 0.61427 17.7842 0.691439 17.7503 0.780092L14.0003 10.7301V10.8201C13.8314 11.1462 13.5759 11.4195 13.262 11.61C12.948 11.8005 12.5876 11.9009 12.2203 11.9001H12.0003L1.00034 10.4801C0.90777 10.4683 0.813756 10.4827 0.728929 10.5216C0.644101 10.5604 0.571847 10.6223 0.520337 10.7001C0.470671 10.7796 0.444336 10.8714 0.444336 10.9651C0.444336 11.0588 0.470671 11.1506 0.520337 11.2301L3.89034 17.0001H2.39034C2.25773 17.0001 2.13055 17.0528 2.03678 17.1465C1.94302 17.2403 1.89034 17.3675 1.89034 17.5001V18.5001C1.89034 18.6327 1.94302 18.7599 2.03678 18.8536C2.13055 18.9474 2.25773 19.0001 2.39034 19.0001H21.4903C21.6229 19.0001 21.7501 18.9474 21.8439 18.8536C21.9377 18.7599 21.9903 18.6327 21.9903 18.5001V17.5001C21.9903 17.3675 21.9377 17.2403 21.8439 17.1465C21.7501 17.0528 21.6229 17.0001 21.4903 17.0001H14.7903L23.0003 12.2401C23.4588 11.9745 23.7932 11.5379 23.93 11.0261C24.0669 10.5143 23.9951 9.96903 23.7303 9.51009Z" fill="black"/>
</svg>
