<svg width="24" height="24" viewBox="0 0 24 24" fill="none" xmlns="http://www.w3.org/2000/svg">
<g clip-path="url(#clip0_105_22)">
<path d="M12.1802 13.9001C12.3461 13.8932 12.5076 13.8451 12.6502 13.7601C12.8214 13.6558 12.9572 13.5025 13.0402 13.3201L17.0402 2.68012C17.0682 2.61151 17.0806 2.53755 17.0764 2.46359C17.0723 2.38962 17.0518 2.31749 17.0164 2.25241C16.981 2.18734 16.9316 2.13095 16.8717 2.08732C16.8118 2.04368 16.743 2.0139 16.6702 2.00012C16.2728 1.97129 15.8758 2.06182 15.5302 2.26012L0.87022 10.7601C0.485017 10.9696 0.179335 11.2999 0.000219863 11.7001C-0.0333359 11.7686 -0.0507813 11.8439 -0.0507812 11.9201C-0.0507812 11.9964 -0.0333359 12.0716 0.000219863 12.1401C0.0383005 12.2076 0.0915487 12.2653 0.155761 12.3087C0.219973 12.3521 0.293391 12.38 0.37022 12.3901L12.1102 13.9001H12.1802Z" fill="black"/>
<path d="M23.7303 12.5101L18.6603 3.71009C18.6118 3.62758 18.5411 3.56038 18.4562 3.51617C18.3714 3.47196 18.2757 3.45253 18.1803 3.46009C18.0857 3.46712 17.995 3.50094 17.9188 3.5576C17.8427 3.61427 17.7842 3.69144 17.7503 3.78009L14.0003 13.7301V13.8201C13.8314 14.1462 13.5759 14.4195 13.262 14.61C12.948 14.8005 12.5876 14.9009 12.2203 14.9001H12.0003L1.00034 13.4801C0.90777 13.4683 0.813756 13.4827 0.728929 13.5216C0.644101 13.5604 0.571847 13.6223 0.520337 13.7001C0.470671 13.7796 0.444336 13.8714 0.444336 13.9651C0.444336 14.0588 0.470671 14.1506 0.520337 14.2301L3.89034 20.0001H2.39034C2.25773 20.0001 2.13055 20.0528 2.03678 20.1465C1.94302 20.2403 1.89034 20.3675 1.89034 20.5001V21.5001C1.89034 21.6327 1.94302 21.7599 2.03678 21.8536C2.13055 21.9474 2.25773 22.0001 2.39034 22.0001H21.4903C21.6229 22.0001 21.7501 21.9474 21.8439 21.8536C21.9377 21.7599 21.9903 21.6327 21.9903 21.5001V20.5001C21.9903 20.3675 21.9377 20.2403 21.8439 20.1465C21.7501 20.0528 21.6229 20.0001 21.4903 20.0001H14.7903L23.0003 15.2401C23.4588 14.9745 23.7932 14.5379 23.93 14.0261C24.0669 13.5143 23.9951 12.969 23.7303 12.5101Z" fill="black"/>
</g>
<defs>
<clipPath id="clip0_105_22">
<rect width="24" height="24" fill="white"/>
</clipPath>
</defs>
</svg>
