<svg width="106" height="106" viewBox="0 0 106 106" fill="none" xmlns="http://www.w3.org/2000/svg">
<path d="M84.1375 63.7325C86.3237 69.2313 89.7688 74.6638 94.3731 79.8975C95.8306 81.5538 96.0294 83.9388 94.8369 85.7938C93.9094 87.2513 92.3856 88.0463 90.7294 88.0463C90.2656 88.0463 89.8019 88.0131 89.3381 87.8475C79.5994 84.9988 56.8425 74.8956 56.2131 42.4994C55.9813 30.0113 65.1237 19.2788 77.0156 18.0531C83.6075 17.3906 90.1663 19.5438 95.0356 23.9163C97.4439 26.1004 99.3688 28.764 100.687 31.7362C102.004 34.7083 102.686 37.9232 102.688 41.1744C102.688 52.1056 94.9363 61.6788 84.1375 63.7325ZM24.1481 18.0531C30.7069 17.3906 37.2656 19.5438 42.135 23.9163C44.5435 26.1002 46.4684 28.7639 47.7862 31.736C49.104 34.7082 49.7855 37.9232 49.7869 41.1744C49.7869 52.1056 42.0356 61.6788 31.2369 63.7325C33.4231 69.2313 36.8681 74.6638 41.4725 79.8975C42.93 81.5538 43.1287 83.9388 41.9362 85.7938C41.0088 87.2513 39.485 88.0463 37.8288 88.0463C37.365 88.0463 36.9013 88.0131 36.4375 87.8475C26.6988 84.9988 3.94187 74.8956 3.3125 42.4994V42.0356C3.3125 29.7463 12.3556 19.2788 24.1481 18.0531Z" fill="#FFD367" fill-opacity="0.3"/>
</svg>
